<svg xmlns="http://www.w3.org/2000/svg" width="1000" height="600" viewBox="0 0 1000 600">
  <rect width="1000" height="600" fill="#ffffff"/>
  <text x="500" y="36" text-anchor="middle" font-family="Arial, sans-serif" font-size="24" font-weight="700" fill="#111827">Progreso de iteracion - Sprint 2</text>

  <line x1="90" y1="500" x2="940" y2="500" stroke="#111827" stroke-width="1.5"/>
  <line x1="90" y1="70" x2="90" y2="500" stroke="#111827" stroke-width="1.5"/>

  <g font-family="Arial, sans-serif" font-size="12" fill="#374151">
    <line x1="90" y1="500.0" x2="940" y2="500.0" stroke="#d1d5db" stroke-width="1"/>
    <text x="78" y="504.0" text-anchor="end">0</text>
    <line x1="90" y1="446.3" x2="940" y2="446.3" stroke="#d1d5db" stroke-width="1" stroke-dasharray="5 5"/>
    <text x="78" y="450.3" text-anchor="end">4</text>
    <line x1="90" y1="392.5" x2="940" y2="392.5" stroke="#d1d5db" stroke-width="1" stroke-dasharray="5 5"/>
    <text x="78" y="396.5" text-anchor="end">8</text>
    <line x1="90" y1="338.8" x2="940" y2="338.8" stroke="#d1d5db" stroke-width="1" stroke-dasharray="5 5"/>
    <text x="78" y="342.8" text-anchor="end">12</text>
    <line x1="90" y1="285.0" x2="940" y2="285.0" stroke="#d1d5db" stroke-width="1" stroke-dasharray="5 5"/>
    <text x="78" y="289.0" text-anchor="end">16</text>
    <line x1="90" y1="231.3" x2="940" y2="231.3" stroke="#d1d5db" stroke-width="1" stroke-dasharray="5 5"/>
    <text x="78" y="235.3" text-anchor="end">20</text>
    <line x1="90" y1="177.5" x2="940" y2="177.5" stroke="#d1d5db" stroke-width="1" stroke-dasharray="5 5"/>
    <text x="78" y="181.5" text-anchor="end">24</text>
    <line x1="90" y1="123.8" x2="940" y2="123.8" stroke="#d1d5db" stroke-width="1" stroke-dasharray="5 5"/>
    <text x="78" y="127.8" text-anchor="end">28</text>
    <line x1="90" y1="70.0" x2="940" y2="70.0" stroke="#d1d5db" stroke-width="1" stroke-dasharray="5 5"/>
    <text x="78" y="74.0" text-anchor="end">32</text>
  </g>

  <g font-family="Arial, sans-serif" font-size="12" fill="#374151">
    <text x="90.0" y="526" text-anchor="middle">Dia 0</text>
    <text x="196.3" y="526" text-anchor="middle">Dia 1</text>
    <text x="302.5" y="526" text-anchor="middle">Dia 2</text>
    <text x="408.8" y="526" text-anchor="middle">Dia 3</text>
    <text x="515.0" y="526" text-anchor="middle">Dia 4</text>
    <text x="621.3" y="526" text-anchor="middle">Dia 5</text>
    <text x="727.5" y="526" text-anchor="middle">Dia 6</text>
    <text x="833.8" y="526" text-anchor="middle">Dia 7</text>
    <text x="940.0" y="526" text-anchor="middle">Dia 8</text>
  </g>

  <text x="515" y="570" text-anchor="middle" font-family="Arial, sans-serif" font-size="15" fill="#111827">Dias del Sprint</text>
  <text x="26" y="285" transform="rotate(-90 26 285)" text-anchor="middle" font-family="Arial, sans-serif" font-size="15" fill="#111827">Puntos de Historia</text>

  <polyline points="90.0,110.3 196.3,110.3 302.5,110.3 408.8,110.3 515.0,110.3 621.3,110.3 727.5,110.3 833.8,110.3 940.0,110.3" fill="none" stroke="#1f4e79" stroke-width="4"/>
  <polyline points="90.0,500.0 196.3,500.0 302.5,500.0 408.8,432.8 515.0,365.6 621.3,258.1 727.5,217.8 833.8,150.6 940.0,110.3" fill="none" stroke="#2e7d32" stroke-width="4"/>

  <g fill="#1f4e79">
    <circle cx="90.0" cy="110.3" r="5"/>
    <circle cx="196.3" cy="110.3" r="5"/>
    <circle cx="302.5" cy="110.3" r="5"/>
    <circle cx="408.8" cy="110.3" r="5"/>
    <circle cx="515.0" cy="110.3" r="5"/>
    <circle cx="621.3" cy="110.3" r="5"/>
    <circle cx="727.5" cy="110.3" r="5"/>
    <circle cx="833.8" cy="110.3" r="5"/>
    <circle cx="940.0" cy="110.3" r="5"/>
  </g>
  <g fill="#2e7d32">
    <circle cx="90.0" cy="500.0" r="5"/>
    <circle cx="196.3" cy="500.0" r="5"/>
    <circle cx="302.5" cy="500.0" r="5"/>
    <circle cx="408.8" cy="432.8" r="5"/>
    <circle cx="515.0" cy="365.6" r="5"/>
    <circle cx="621.3" cy="258.1" r="5"/>
    <circle cx="727.5" cy="217.8" r="5"/>
    <circle cx="833.8" cy="150.6" r="5"/>
    <circle cx="940.0" cy="110.3" r="5"/>
  </g>

  <rect x="590" y="440" width="330" height="48" rx="4" fill="#ffffff" stroke="#d1d5db"/>
  <line x1="610" y1="456" x2="650" y2="456" stroke="#1f4e79" stroke-width="4"/>
  <circle cx="630" cy="456" r="5" fill="#1f4e79"/>
  <text x="662" y="461" font-family="Arial, sans-serif" font-size="13" fill="#111827">Alcance total (29 puntos)</text>
  <line x1="610" y1="476" x2="650" y2="476" stroke="#2e7d32" stroke-width="4"/>
  <circle cx="630" cy="476" r="5" fill="#2e7d32"/>
  <text x="662" y="481" font-family="Arial, sans-serif" font-size="13" fill="#111827">Trabajo completado acumulado</text>
</svg>
